<svg id="Group_10217" data-name="Group 10217" xmlns="http://www.w3.org/2000/svg" width="36.084" height="43.032" viewBox="0 0 36.084 43.032">
  <g id="Layer_2_9_" transform="translate(0)">
    <g id="Group_10216" data-name="Group 10216">
      <path id="Path_13315" data-name="Path 13315" d="M86.571,7.444c.415.234,3.211,1.585,4.562,2.235.005.524.017,1.431.035,1.446.149,1.3.4,2.741.478,3.148-.123.068-.754.481-.754,1.765l0,.021c0,.034,0,.068,0,.1.272,3.569,1.691,2.031,1.984,3.594a7.766,7.766,0,0,0,4.22,5.128,5.964,5.964,0,0,0,5.151,0,7.766,7.766,0,0,0,4.22-5.128c.293-1.563,1.712-.025,1.984-3.594,0-.035,0-.069,0-.1l0-.021c0-1.284-.631-1.7-.754-1.765.074-.407.33-1.85.478-3.148.018-.015.029-.922.035-1.446.742-.357,1.919-.926,2.9-1.4v3.45a.887.887,0,0,0-.09,1.5s-.394,2.213-.521,2.864,2.245.52,2.138,0-.521-2.864-.521-2.864a.888.888,0,0,0-.089-1.5v-3.9c.365-.181.637-.319.746-.38.294-.165.452-.377.419-.6.04-.229-.126-.476-.57-.693C109.445,4.6,101.352.639,100.552.258a1.635,1.635,0,0,0-1.762,0c-.8.382-8.893,4.342-12.068,5.9-.445.218-.611.464-.57.693C86.118,7.067,86.277,7.279,86.571,7.444Z" transform="translate(-81.629)" fill="#fff"/>
      <path id="Path_13316" data-name="Path 13316" d="M66.268,297.054a39.8,39.8,0,0,1-4.538-2.33.78.78,0,0,0-1.1.343c-1.231,2.061-3.514,8.056-5.107,8.167l-.03,0-.03,0c-1.593-.111-3.876-6.106-5.107-8.167a.78.78,0,0,0-1.1-.343,39.806,39.806,0,0,1-4.538,2.33c-5.013,1.807-7.268,3.651-7.268,4.908v8.358H73.536v-8.358C73.536,300.7,71.281,298.861,66.268,297.054Z" transform="translate(-37.452 -267.288)" fill="#fff"/>
    </g>
  </g>
</svg>
