<svg id="Group_11452" data-name="Group 11452" xmlns="http://www.w3.org/2000/svg" width="45.887" height="45.887" viewBox="0 0 45.887 45.887">
  <g id="Group_11445" data-name="Group 11445" transform="translate(11.292)">
    <path id="Path_13322" data-name="Path 13322" d="M190.34,103.585v3.585a7.17,7.17,0,0,1-14.34,0v-3.585h1.369a6.485,6.485,0,0,0,5.8-3.585,6.485,6.485,0,0,0,5.8,3.585Z" transform="translate(-171.519 -91.038)" fill="#fff"/>
    <g id="Group_11444" data-name="Group 11444">
      <g id="Group_11443" data-name="Group 11443" transform="translate(20.668)">
        <path id="Path_13323" data-name="Path 13323" d="M363.73,4.929A4.93,4.93,0,0,0,356.615.51a14.353,14.353,0,0,1,5.062,8.42A4.92,4.92,0,0,0,363.73,4.929Z" transform="translate(-356.615)" fill="#fff"/>
      </g>
      <path id="Path_13324" data-name="Path 13324" d="M149.3,11.651a11.651,11.651,0,1,0-23.3.111,7.4,7.4,0,0,0,1.8,4.842c-.007-.156-.012-.314-.012-.472V12.547a2.689,2.689,0,0,1,2.689-2.689h1.369a3.776,3.776,0,0,0,3.4-2.1,2.689,2.689,0,0,1,4.81,0,3.776,3.776,0,0,0,3.4,2.1h1.369a2.689,2.689,0,0,1,2.689,2.689v3.585c0,.158,0,.316-.012.472a7.4,7.4,0,0,0,1.8-4.842Z" transform="translate(-126 0)" fill="#fff"/>
    </g>
  </g>
  <g id="Group_11451" data-name="Group 11451" transform="translate(0 5.158)">
    <g id="Group_11447" data-name="Group 11447">
      <path id="Path_13325" data-name="Path 13325" d="M31.567,333.443l-.3-1.7a3.137,3.137,0,1,1,6.178-1.089l.3,1.7a3.137,3.137,0,1,1-6.178,1.089Z" transform="translate(-28.421 -303.821)" fill="#fff"/>
      <g id="Group_11446" data-name="Group 11446">
        <path id="Path_13326" data-name="Path 13326" d="M5.939,79.106c.113,0,.225,0,.336.011L2.668,58.662a1.344,1.344,0,1,0-2.648.467L3.627,79.584a5.818,5.818,0,0,1,2.312-.478Z" transform="translate(0 -57.55)" fill="#fff"/>
      </g>
    </g>
    <g id="Group_11448" data-name="Group 11448" transform="translate(8.989 20.687)">
      <path id="Path_13327" data-name="Path 13327" d="M122.5,288.377h-1.524v1.344a6.722,6.722,0,0,1-13.443,0v-1.344h-3.316a10.091,10.091,0,0,0-3.917.787l.188,1.064a5.814,5.814,0,0,1,2.5,3.832l.3,1.7a5.816,5.816,0,0,1,.072,1.46h7.315a7.623,7.623,0,0,1,3.585.9,7.623,7.623,0,0,1,3.585-.9h14.707A10.129,10.129,0,0,0,122.5,288.377Z" transform="translate(-100.298 -288.377)" fill="#fff"/>
    </g>
    <g id="Group_11449" data-name="Group 11449" transform="translate(0 32.215)">
      <path id="Path_13328" data-name="Path 13328" d="M44.542,421.033H43.109v-2.689A1.344,1.344,0,0,0,41.764,417H26.528a4.915,4.915,0,0,0-3.585,1.551A4.915,4.915,0,0,0,19.359,417h-8.22a5.824,5.824,0,0,1-8.36,1.555v2.478H1.344a1.344,1.344,0,0,0,0,2.689H18.616a4.745,4.745,0,0,1,3.377,1.4,1.344,1.344,0,0,0,1.9,0,4.745,4.745,0,0,1,3.377-1.4H44.542a1.344,1.344,0,0,0,0-2.689Z" transform="translate(0 -417)" fill="#fff"/>
    </g>
    <g id="Group_11450" data-name="Group 11450" transform="translate(18.91 19.97)">
      <path id="Path_13329" data-name="Path 13329" d="M211,280.368v2.062a4.033,4.033,0,0,0,8.066,0v-2.062a9.852,9.852,0,0,1-8.066,0Z" transform="translate(-211 -280.368)" fill="#fff"/>
    </g>
  </g>
</svg>
