<svg id="svgexport-6_7_" data-name="svgexport-6 (7)" xmlns="http://www.w3.org/2000/svg" width="44.037" height="44.037" viewBox="0 0 44.037 44.037">
  <path id="Path_13330" data-name="Path 13330" d="M40.866,18.006a19.275,19.275,0,0,0-2.691-6.478,4.115,4.115,0,0,0-5.667-5.667A19.275,19.275,0,0,0,26.03,3.171a4.123,4.123,0,0,0-8.024,0,19.275,19.275,0,0,0-6.478,2.691,4.115,4.115,0,0,0-5.667,5.667,19.275,19.275,0,0,0-2.691,6.478,4.123,4.123,0,0,0,0,8.024,19.276,19.276,0,0,0,2.691,6.478,4.115,4.115,0,0,0,5.667,5.667,19.275,19.275,0,0,0,6.478,2.691,4.123,4.123,0,0,0,8.024,0,19.276,19.276,0,0,0,6.477-2.691,4.115,4.115,0,0,0,5.667-5.667,19.275,19.275,0,0,0,2.691-6.478,4.123,4.123,0,0,0,0-8.024ZM31.749,31.749a4.122,4.122,0,0,0-.968,4.26,16.507,16.507,0,0,1-5.052,2.1,4.119,4.119,0,0,0-7.421,0,16.507,16.507,0,0,1-5.052-2.1A4.1,4.1,0,0,0,8.028,30.78a16.508,16.508,0,0,1-2.1-5.051,4.119,4.119,0,0,0,0-7.421,16.507,16.507,0,0,1,2.1-5.051,4.077,4.077,0,0,0,4.26-.969,4.122,4.122,0,0,0,.968-4.26,16.507,16.507,0,0,1,5.052-2.1,4.119,4.119,0,0,0,7.421,0,16.507,16.507,0,0,1,5.052,2.1,4.122,4.122,0,0,0,.969,4.26,4.076,4.076,0,0,0,4.26.968,16.507,16.507,0,0,1,2.1,5.051,4.119,4.119,0,0,0,0,7.421,16.507,16.507,0,0,1-2.1,5.051,4.122,4.122,0,0,0-4.26.969ZM35.641,8.395a1.376,1.376,0,1,1-1.946,0,1.376,1.376,0,0,1,1.946,0ZM22.018,2.752a1.376,1.376,0,1,1-1.376,1.376,1.376,1.376,0,0,1,1.376-1.376ZM8.395,8.4a1.376,1.376,0,1,1,0,1.946A1.376,1.376,0,0,1,8.395,8.4ZM4.128,20.642a1.376,1.376,0,1,1-1.376,1.376,1.376,1.376,0,0,1,1.376-1.376Zm4.267,15a1.376,1.376,0,1,1,1.946,0A1.376,1.376,0,0,1,8.4,35.642Zm13.623,5.643a1.376,1.376,0,1,1,1.376-1.376A1.376,1.376,0,0,1,22.018,41.284Zm13.623-5.643a1.376,1.376,0,1,1,0-1.946A1.376,1.376,0,0,1,35.642,35.641Zm4.267-12.247a1.376,1.376,0,1,1,1.376-1.376,1.376,1.376,0,0,1-1.376,1.376Z" fill="#fff"/>
</svg>
